<svg width="380" height="163" viewBox="0 0 380 163" fill="none" xmlns="http://www.w3.org/2000/svg">
    <g filter="url(#filter0_d_49_25)">
        <mask id="path-1-outside-1_49_25" maskUnits="userSpaceOnUse" x="8.16478" y="125.787" width="43.7471"
            height="32.7016" fill="black">
            <rect fill="white" x="8.16478" y="125.787" width="43.7471" height="32.7016" />
            <path
                d="M46.5439 150.981L17.0945 140.677L15.1196 146.321L10.2113 144.604L16.0502 127.916L20.9584 129.633L18.9835 135.278L48.433 145.582L46.5439 150.981Z" />
        </mask>
        <path
            d="M46.5439 150.981L17.0945 140.677L15.1196 146.321L10.2113 144.604L16.0502 127.916L20.9584 129.633L18.9835 135.278L48.433 145.582L46.5439 150.981Z"
            fill="#EBEAE8" />
        <path
            d="M46.5439 150.981L46.2137 151.925L47.1576 152.255L47.4878 151.311L46.5439 150.981ZM17.0945 140.677L17.4247 139.733L16.4808 139.403L16.1506 140.347L17.0945 140.677ZM15.1196 146.321L14.7893 147.265L15.7332 147.595L16.0635 146.652L15.1196 146.321ZM10.2113 144.604L9.26744 144.274L8.93719 145.218L9.88108 145.548L10.2113 144.604ZM16.0502 127.916L16.3805 126.972L15.4366 126.642L15.1063 127.586L16.0502 127.916ZM20.9584 129.633L21.9023 129.964L22.2326 129.02L21.2887 128.689L20.9584 129.633ZM18.9835 135.278L18.0396 134.948L17.7094 135.891L18.6533 136.222L18.9835 135.278ZM48.433 145.582L49.3769 145.912L49.7071 144.968L48.7632 144.638L48.433 145.582ZM46.8742 150.037L17.4247 139.733L16.7642 141.621L46.2137 151.925L46.8742 150.037ZM16.1506 140.347L14.1757 145.991L16.0635 146.652L18.0384 141.007L16.1506 140.347ZM15.4498 145.377L10.5416 143.66L9.88108 145.548L14.7893 147.265L15.4498 145.377ZM11.1552 144.934L16.9941 128.246L15.1063 127.586L9.26744 144.274L11.1552 144.934ZM15.7199 128.86L20.6282 130.577L21.2887 128.689L16.3805 126.972L15.7199 128.86ZM20.0146 129.303L18.0396 134.948L19.9274 135.608L21.9023 129.964L20.0146 129.303ZM18.6533 136.222L48.1027 146.526L48.7632 144.638L19.3138 134.334L18.6533 136.222ZM47.4891 145.251L45.6 150.65L47.4878 151.311L49.3769 145.912L47.4891 145.251Z"
            fill="#090909" mask="url(#path-1-outside-1_49_25)" />
    </g>
    <g filter="url(#filter1_d_49_25)">
        <mask id="path-3-outside-2_49_25" maskUnits="userSpaceOnUse" x="19.5" y="98.4792" width="43.8121"
            height="36.2931" fill="black">
            <rect fill="white" x="19.5" y="98.4792" width="43.8121" height="36.2931" />
            <path
                d="M53.3601 133.299L21.4472 115.791L24.1985 110.776L37.1916 117.904L40.1429 112.525L27.1498 105.396L29.9011 100.381L61.8139 117.889L59.0627 122.904L44.7019 115.026L41.7505 120.405L56.1113 128.284L53.3601 133.299Z" />
        </mask>
        <path
            d="M53.3601 133.299L21.4472 115.791L24.1985 110.776L37.1916 117.904L40.1429 112.525L27.1498 105.396L29.9011 100.381L61.8139 117.889L59.0627 122.904L44.7019 115.026L41.7505 120.405L56.1113 128.284L53.3601 133.299Z"
            fill="#EBEAE8" />
        <path
            d="M53.3601 133.299L52.8791 134.176L53.7558 134.657L54.2368 133.78L53.3601 133.299ZM21.4472 115.791L20.5705 115.31L20.0895 116.187L20.9662 116.668L21.4472 115.791ZM24.1985 110.776L24.6795 109.899L23.8027 109.418L23.3217 110.295L24.1985 110.776ZM37.1916 117.904L36.7106 118.781L37.5873 119.262L38.0683 118.385L37.1916 117.904ZM40.1429 112.525L41.0196 113.006L41.5006 112.129L40.6239 111.648L40.1429 112.525ZM27.1498 105.396L26.2731 104.915L25.7921 105.792L26.6688 106.273L27.1498 105.396ZM29.9011 100.381L30.3821 99.5047L29.5053 99.0238L29.0244 99.9005L29.9011 100.381ZM61.8139 117.889L62.6907 118.37L63.1716 117.494L62.2949 117.013L61.8139 117.889ZM59.0627 122.904L58.5817 123.781L59.4584 124.262L59.9394 123.385L59.0627 122.904ZM44.7019 115.026L45.1829 114.149L44.3062 113.668L43.8252 114.545L44.7019 115.026ZM41.7505 120.405L40.8738 119.924L40.3928 120.801L41.2696 121.282L41.7505 120.405ZM56.1113 128.284L56.9881 128.765L57.469 127.888L56.5923 127.407L56.1113 128.284ZM53.8411 132.422L21.9282 114.914L20.9662 116.668L52.8791 134.176L53.8411 132.422ZM22.3239 116.272L25.0752 111.257L23.3217 110.295L20.5705 115.31L22.3239 116.272ZM23.7175 111.653L36.7106 118.781L37.6726 117.027L24.6795 109.899L23.7175 111.653ZM38.0683 118.385L41.0196 113.006L39.2662 112.044L36.3148 117.423L38.0683 118.385ZM40.6239 111.648L27.6308 104.52L26.6688 106.273L39.6619 113.401L40.6239 111.648ZM28.0265 105.877L30.7778 100.862L29.0244 99.9005L26.2731 104.915L28.0265 105.877ZM29.4201 101.258L61.3329 118.766L62.2949 117.013L30.3821 99.5047L29.4201 101.258ZM60.9372 117.408L58.186 122.423L59.9394 123.385L62.6907 118.37L60.9372 117.408ZM59.5437 122.028L45.1829 114.149L44.2209 115.902L58.5817 123.781L59.5437 122.028ZM43.8252 114.545L40.8738 119.924L42.6273 120.886L45.5786 115.507L43.8252 114.545ZM41.2696 121.282L55.6303 129.161L56.5923 127.407L42.2315 119.529L41.2696 121.282ZM55.2346 127.803L52.4833 132.818L54.2368 133.78L56.9881 128.765L55.2346 127.803Z"
            fill="#090909" mask="url(#path-3-outside-2_49_25)" />
    </g>
    <g filter="url(#filter2_d_49_25)">
        <mask id="path-5-outside-3_49_25" maskUnits="userSpaceOnUse" x="36.2354" y="73.8036" width="41.777"
            height="38.2688" fill="black">
            <rect fill="white" x="36.2354" y="73.8036" width="41.777" height="38.2688" />
            <path
                d="M66.7918 110.564L38.1928 88.0464L47.8434 75.7897L51.929 79.0065L45.8169 86.7691L53.3752 92.7203L58.2327 86.5511L62.3182 89.7679L57.4608 95.9371L66.2447 102.853L72.3568 95.0908L76.4423 98.3077L66.7918 110.564Z" />
        </mask>
        <path
            d="M66.7918 110.564L38.1928 88.0464L47.8434 75.7897L51.929 79.0065L45.8169 86.7691L53.3752 92.7203L58.2327 86.5511L62.3182 89.7679L57.4608 95.9371L66.2447 102.853L72.3568 95.0908L76.4423 98.3077L66.7918 110.564Z"
            fill="#EBEAE8" />
        <path
            d="M66.7918 110.564L66.1731 111.35L66.9588 111.969L67.5775 111.183L66.7918 110.564ZM38.1928 88.0464L37.4071 87.4277L36.7885 88.2134L37.5742 88.832L38.1928 88.0464ZM47.8434 75.7897L48.462 75.004L47.6763 74.3854L47.0577 75.171L47.8434 75.7897ZM51.929 79.0065L52.7147 79.6252L53.3333 78.8395L52.5476 78.2208L51.929 79.0065ZM45.8169 86.7691L45.0313 86.1505L44.4126 86.9362L45.1983 87.5548L45.8169 86.7691ZM53.3752 92.7203L52.7566 93.506L53.5423 94.1246L54.1609 93.3389L53.3752 92.7203ZM58.2327 86.5511L58.8513 85.7654L58.0656 85.1468L57.447 85.9325L58.2327 86.5511ZM62.3182 89.7679L63.1039 90.3866L63.7226 89.6009L62.9369 88.9823L62.3182 89.7679ZM57.4608 95.9371L56.6751 95.3185L56.0565 96.1042L56.8422 96.7228L57.4608 95.9371ZM66.2447 102.853L65.6261 103.639L66.4118 104.258L67.0304 103.472L66.2447 102.853ZM72.3568 95.0908L72.9754 94.3051L72.1897 93.6865L71.5711 94.4722L72.3568 95.0908ZM76.4423 98.3077L77.228 98.9263L77.8467 98.1406L77.061 97.522L76.4423 98.3077ZM67.4104 109.779L38.8115 87.2607L37.5742 88.832L66.1731 111.35L67.4104 109.779ZM38.9785 88.665L48.6291 76.4083L47.0577 75.171L37.4071 87.4277L38.9785 88.665ZM47.2248 76.5754L51.3103 79.7922L52.5476 78.2208L48.462 75.004L47.2248 76.5754ZM51.1433 78.3879L45.0313 86.1505L46.6026 87.3877L52.7147 79.6252L51.1433 78.3879ZM45.1983 87.5548L52.7566 93.506L53.9939 91.9346L46.4356 85.9834L45.1983 87.5548ZM54.1609 93.3389L59.0184 87.1697L57.447 85.9325L52.5895 92.1017L54.1609 93.3389ZM57.6141 87.3368L61.6996 90.5536L62.9369 88.9823L58.8513 85.7654L57.6141 87.3368ZM61.5326 89.1493L56.6751 95.3185L58.2465 96.5558L63.1039 90.3866L61.5326 89.1493ZM56.8422 96.7228L65.6261 103.639L66.8634 102.068L58.0794 95.1515L56.8422 96.7228ZM67.0304 103.472L73.1425 95.7095L71.5711 94.4722L65.4591 102.235L67.0304 103.472ZM71.7382 95.8765L75.8237 99.0934L77.061 97.522L72.9754 94.3051L71.7382 95.8765ZM75.6567 97.6891L66.0061 109.946L67.5775 111.183L77.228 98.9263L75.6567 97.6891Z"
            fill="#090909" mask="url(#path-5-outside-3_49_25)" />
    </g>
    <g filter="url(#filter3_d_49_25)">
        <mask id="path-7-outside-4_49_25" maskUnits="userSpaceOnUse" x="66.9732" y="42.1866" width="40.2149"
            height="43.9105" fill="black">
            <rect fill="white" x="66.9732" y="42.1866" width="40.2149" height="43.9105" />
            <path
                d="M98.5053 78.7194C94.1319 82.0743 89.7958 81.2061 86.3776 76.7502L74.4772 61.237C71.059 56.7811 71.3438 52.3681 75.7172 49.0132C80.0906 45.6583 84.4267 46.5264 87.8449 50.9823L90.1871 54.0355L85.8962 57.3271L83.3325 53.9852C81.8766 52.0873 80.3676 51.9996 79.006 53.0441C77.6445 54.0886 77.3382 55.5688 78.7941 57.4667L91.1693 73.5988C92.6252 75.4967 94.1026 75.543 95.4641 74.4986C96.8256 73.4541 97.1636 72.0151 95.7077 70.1172L92.3211 65.7026L96.612 62.411L99.7454 66.4956C103.164 70.9515 102.879 75.3644 98.5053 78.7194Z" />
        </mask>
        <path
            d="M98.5053 78.7194C94.1319 82.0743 89.7958 81.2061 86.3776 76.7502L74.4772 61.237C71.059 56.7811 71.3438 52.3681 75.7172 49.0132C80.0906 45.6583 84.4267 46.5264 87.8449 50.9823L90.1871 54.0355L85.8962 57.3271L83.3325 53.9852C81.8766 52.0873 80.3676 51.9996 79.006 53.0441C77.6445 54.0886 77.3382 55.5688 78.7941 57.4667L91.1693 73.5988C92.6252 75.4967 94.1026 75.543 95.4641 74.4986C96.8256 73.4541 97.1636 72.0151 95.7077 70.1172L92.3211 65.7026L96.612 62.411L99.7454 66.4956C103.164 70.9515 102.879 75.3644 98.5053 78.7194Z"
            fill="#EBEAE8" />
        <path
            d="M90.1871 54.0355L90.7957 54.8289L91.5891 54.2203L90.9805 53.4268L90.1871 54.0355ZM85.8962 57.3271L85.1027 57.9358L85.7114 58.7292L86.5048 58.1205L85.8962 57.3271ZM92.3211 65.7026L91.7125 64.9092L90.9191 65.5178L91.5277 66.3112L92.3211 65.7026ZM96.612 62.411L97.4055 61.8023L96.7968 61.0089L96.0034 61.6175L96.612 62.411ZM97.8967 77.9259C95.8727 79.4786 93.9709 79.9744 92.2531 79.6784C90.5185 79.3794 88.7811 78.2404 87.1711 76.1416L85.5842 77.3589C87.3923 79.7159 89.5321 81.2389 91.9134 81.6493C94.3116 82.0626 96.7646 81.3151 99.114 79.5128L97.8967 77.9259ZM87.1711 76.1416L75.2706 60.6283L73.6837 61.8456L85.5842 77.3589L87.1711 76.1416ZM75.2706 60.6283C73.6605 58.5295 73.0105 56.5564 73.1712 54.8035C73.3303 53.0676 74.3019 51.3593 76.3259 49.8066L75.1086 48.2198C72.7592 50.022 71.4016 52.1976 71.1795 54.6209C70.959 57.0273 71.8756 59.4886 73.6837 61.8456L75.2706 60.6283ZM76.3259 49.8066C78.3499 48.254 80.2516 47.7581 81.9695 48.0542C83.7041 48.3531 85.4414 49.4921 87.0515 51.591L88.6384 50.3737C86.8302 48.0166 84.6904 46.4936 82.3091 46.0832C79.911 45.67 77.458 46.4175 75.1086 48.2198L76.3259 49.8066ZM87.0515 51.591L89.3936 54.6441L90.9805 53.4268L88.6384 50.3737L87.0515 51.591ZM89.5784 53.242L85.2875 56.5337L86.5048 58.1205L90.7957 54.8289L89.5784 53.242ZM86.6896 56.7184L84.1259 53.3765L82.5391 54.5938L85.1027 57.9358L86.6896 56.7184ZM84.1259 53.3765C83.3101 52.313 82.3708 51.6139 81.3075 51.4264C80.225 51.2356 79.2299 51.6121 78.3974 52.2507L79.6147 53.8375C80.1437 53.4317 80.5839 53.3297 80.9603 53.3961C81.3559 53.4658 81.899 53.7594 82.5391 54.5938L84.1259 53.3765ZM78.3974 52.2507C77.5649 52.8893 76.9435 53.7529 76.8473 54.8479C76.7529 55.9234 77.1848 57.0119 78.0006 58.0753L79.5875 56.858C78.9474 56.0236 78.8045 55.423 78.8397 55.0228C78.8731 54.6421 79.0856 54.2434 79.6147 53.8375L78.3974 52.2507ZM78.0006 58.0753L90.3758 74.2074L91.9627 72.9901L79.5875 56.858L78.0006 58.0753ZM90.3758 74.2074C91.1913 75.2704 92.1266 75.9645 93.1903 76.1389C94.269 76.3157 95.2518 75.9218 96.0728 75.292L94.8554 73.7051C94.3149 74.1198 93.8782 74.2249 93.5138 74.1652C93.1345 74.103 92.6031 73.825 91.9627 72.9901L90.3758 74.2074ZM96.0728 75.292C96.8937 74.6622 97.5288 73.815 97.6375 72.7274C97.7447 71.6548 97.3166 70.5716 96.5011 69.5086L94.9143 70.7259C95.5547 71.5608 95.6856 72.146 95.6474 72.5285C95.6107 72.8959 95.396 73.2905 94.8554 73.7051L96.0728 75.292ZM96.5011 69.5086L93.1146 65.0939L91.5277 66.3112L94.9143 70.7259L96.5011 69.5086ZM92.9298 66.496L97.2207 63.2044L96.0034 61.6175L91.7125 64.9092L92.9298 66.496ZM95.8186 63.0196L98.952 67.1042L100.539 65.8869L97.4055 61.8023L95.8186 63.0196ZM98.952 67.1042C100.562 69.2031 101.212 71.1762 101.051 72.9291C100.892 74.6649 99.9207 76.3733 97.8967 77.9259L99.114 79.5128C101.463 77.7105 102.821 75.5349 103.043 73.1116C103.264 70.7053 102.347 68.244 100.539 65.8869L98.952 67.1042Z"
            fill="#090909" mask="url(#path-7-outside-4_49_25)" />
    </g>
    <g filter="url(#filter4_d_49_25)">
        <mask id="path-9-outside-5_49_25" maskUnits="userSpaceOnUse" x="91.8326" y="26.4849" width="37.3325"
            height="45.1767" fill="black">
            <rect fill="white" x="91.8326" y="26.4849" width="37.3325" height="45.1767" />
            <path
                d="M119.113 65.4684C114.155 68.1072 109.883 66.6111 107.147 61.4701L98.1552 44.5781C95.4186 39.4371 96.5631 35.0578 101.52 32.4189C106.478 29.7801 110.75 31.2762 113.486 36.4173L122.478 53.3092C125.215 58.4502 124.07 62.8295 119.113 65.4684ZM116.669 60.8782C118.276 60.023 118.822 58.6133 117.6 56.3182L108.266 38.7837C107.045 36.4886 105.57 36.154 103.964 37.0091C102.357 37.8643 101.812 39.274 103.033 41.5691L112.367 59.1037C113.589 61.3988 115.063 61.7333 116.669 60.8782Z" />
        </mask>
        <path
            d="M119.113 65.4684C114.155 68.1072 109.883 66.6111 107.147 61.4701L98.1552 44.5781C95.4186 39.4371 96.5631 35.0578 101.52 32.4189C106.478 29.7801 110.75 31.2762 113.486 36.4173L122.478 53.3092C125.215 58.4502 124.07 62.8295 119.113 65.4684ZM116.669 60.8782C118.276 60.023 118.822 58.6133 117.6 56.3182L108.266 38.7837C107.045 36.4886 105.57 36.154 103.964 37.0091C102.357 37.8643 101.812 39.274 103.033 41.5691L112.367 59.1037C113.589 61.3988 115.063 61.7333 116.669 60.8782Z"
            fill="#EBEAE8" />
        <path
            d="M118.643 64.5856C116.34 65.8114 114.322 66.0161 112.618 65.4394C110.901 64.8587 109.319 63.4234 108.03 61.0002L106.264 61.9399C107.711 64.6577 109.633 66.541 111.976 67.3339C114.332 68.1309 116.928 67.7641 119.583 66.3511L118.643 64.5856ZM108.03 61.0002L99.0379 44.1082L97.2725 45.048L106.264 61.9399L108.03 61.0002ZM99.0379 44.1082C97.748 41.685 97.4407 39.5713 97.9174 37.8233C98.3907 36.0876 99.6875 34.5275 101.99 33.3017L101.051 31.5362C98.396 32.9492 96.642 34.8982 95.9878 37.2971C95.337 39.6837 95.8258 42.3302 97.2725 45.048L99.0379 44.1082ZM101.99 33.3017C104.293 32.0759 106.312 31.8713 108.016 32.4479C109.732 33.0286 111.314 34.4639 112.604 36.8871L114.369 35.9474C112.922 33.2296 111 31.3463 108.657 30.5534C106.301 29.7564 103.705 30.1232 101.051 31.5362L101.99 33.3017ZM112.604 36.8871L121.595 53.7791L123.361 52.8393L114.369 35.9474L112.604 36.8871ZM121.595 53.7791C122.885 56.2023 123.193 58.316 122.716 60.064C122.243 61.7997 120.946 63.3598 118.643 64.5856L119.583 66.3511C122.237 64.9381 123.991 62.9891 124.645 60.5902C125.296 58.2036 124.808 55.5571 123.361 52.8393L121.595 53.7791ZM117.139 61.7609C118.099 61.25 118.891 60.489 119.166 59.3782C119.434 58.2957 119.152 57.1055 118.483 55.8483L116.717 56.7881C117.27 57.826 117.326 58.4882 117.224 58.8981C117.13 59.2798 116.846 59.6511 116.2 59.9954L117.139 61.7609ZM118.483 55.8483L109.149 38.3138L107.383 39.2535L116.717 56.7881L118.483 55.8483ZM109.149 38.3138C108.48 37.0566 107.65 36.1581 106.602 35.7757C105.528 35.3833 104.454 35.6156 103.494 36.1264L104.434 37.8919C105.081 37.5475 105.547 37.5195 105.916 37.6544C106.313 37.7992 106.831 38.2156 107.383 39.2535L109.149 38.3138ZM103.494 36.1264C102.534 36.6373 101.742 37.3984 101.467 38.5091C101.2 39.5916 101.481 40.7818 102.151 42.039L103.916 41.0992C103.364 40.0613 103.307 39.3991 103.409 38.9892C103.503 38.6075 103.787 38.2362 104.434 37.8919L103.494 36.1264ZM102.151 42.039L111.484 59.5735L113.25 58.6338L103.916 41.0992L102.151 42.039ZM111.484 59.5735C112.154 60.8307 112.983 61.7292 114.031 62.1116C115.106 62.504 116.18 62.2717 117.139 61.7609L116.2 59.9954C115.553 60.3398 115.086 60.3678 114.717 60.2329C114.32 60.0881 113.802 59.6717 113.25 58.6338L111.484 59.5735Z"
            fill="#090909" mask="url(#path-9-outside-5_49_25)" />
    </g>
    <g filter="url(#filter5_d_49_25)">
        <mask id="path-11-outside-6_49_25" maskUnits="userSpaceOnUse" x="121.37" y="15.5943" width="31.1748"
            height="43.2943" fill="black">
            <rect fill="white" x="121.37" y="15.5943" width="31.1748" height="43.2943" />
            <path
                d="M134.308 57.5852L122.945 23.0042L131.245 20.2771C136.679 18.4916 140.337 20.6285 142.155 26.1615L147.901 43.6497C149.719 49.1826 148.042 53.0727 142.607 54.8582L134.308 57.5852ZM138.119 50.8595L140.885 49.9505C142.614 49.3824 143.36 48.1523 142.548 45.6822L136.64 27.7001C135.828 25.23 134.498 24.6816 132.769 25.2498L130.003 26.1588L138.119 50.8595Z" />
        </mask>
        <path
            d="M134.308 57.5852L122.945 23.0042L131.245 20.2771C136.679 18.4916 140.337 20.6285 142.155 26.1615L147.901 43.6497C149.719 49.1826 148.042 53.0727 142.607 54.8582L134.308 57.5852ZM138.119 50.8595L140.885 49.9505C142.614 49.3824 143.36 48.1523 142.548 45.6822L136.64 27.7001C135.828 25.23 134.498 24.6816 132.769 25.2498L130.003 26.1588L138.119 50.8595Z"
            fill="#EBEAE8" />
        <path
            d="M134.308 57.5852L133.358 57.8974L133.67 58.8474L134.62 58.5353L134.308 57.5852ZM122.945 23.0042L122.633 22.0541L121.683 22.3663L121.995 23.3163L122.945 23.0042ZM138.119 50.8595L137.169 51.1717L137.481 52.1217L138.431 51.8096L138.119 50.8595ZM130.003 26.1588L129.691 25.2087L128.741 25.5209L129.053 26.4709L130.003 26.1588ZM135.258 57.2731L123.895 22.692L121.995 23.3163L133.358 57.8974L135.258 57.2731ZM123.258 23.9542L131.557 21.2272L130.933 19.3271L122.633 22.0541L123.258 23.9542ZM131.557 21.2272C134.101 20.3911 136.068 20.5221 137.574 21.3509C139.094 22.188 140.341 23.8453 141.205 26.4737L143.105 25.8494C142.15 22.9447 140.66 20.7671 138.538 19.5989C136.401 18.4223 133.822 18.3776 130.933 19.3271L131.557 21.2272ZM141.205 26.4737L146.951 43.9618L148.851 43.3375L143.105 25.8494L141.205 26.4737ZM146.951 43.9618C147.815 46.5902 147.793 48.6643 147.066 50.24C146.346 51.8 144.84 53.0722 142.295 53.9082L142.92 55.8083C145.809 54.8587 147.859 53.2931 148.882 51.0784C149.897 48.8795 149.806 46.2421 148.851 43.3375L146.951 43.9618ZM142.295 53.9082L133.996 56.6352L134.62 58.5353L142.92 55.8083L142.295 53.9082ZM138.431 51.8096L141.198 50.9006L140.573 49.0005L137.807 49.9095L138.431 51.8096ZM141.198 50.9006C142.218 50.5654 143.13 49.9718 143.586 48.9308C144.028 47.9201 143.939 46.7123 143.498 45.3701L141.598 45.9944C141.969 47.1222 141.913 47.7645 141.753 48.1285C141.607 48.4621 141.282 48.7675 140.573 49.0005L141.198 50.9006ZM143.498 45.3701L137.59 27.3879L135.69 28.0122L141.598 45.9944L143.498 45.3701ZM137.59 27.3879C137.149 26.0457 136.504 25.0205 135.548 24.4693C134.564 23.9016 133.477 23.9646 132.457 24.2997L133.081 26.1998C133.79 25.9668 134.233 26.0199 134.549 26.2019C134.893 26.4003 135.319 26.8844 135.69 28.0122L137.59 27.3879ZM132.457 24.2997L129.691 25.2087L130.315 27.1088L133.081 26.1998L132.457 24.2997ZM129.053 26.4709L137.169 51.1717L139.069 50.5474L130.953 25.8466L129.053 26.4709Z"
            fill="#090909" mask="url(#path-11-outside-6_49_25)" />
    </g>
    <g filter="url(#filter6_d_49_25)">
        <mask id="path-13-outside-7_49_25" maskUnits="userSpaceOnUse" x="172.572" y="9.02991" width="22.3761"
            height="39.7234" fill="black">
            <rect fill="white" x="172.572" y="9.02991" width="22.3761" height="39.7234" />
            <path
                d="M175.058 47.7136L173.761 11.3367L180.932 11.0811L187.269 32.657L187.373 32.6533L186.597 10.8791L191.689 10.6976L192.986 47.0745L187.114 47.2838L179.308 20.9732L179.204 20.9769L180.15 47.5321L175.058 47.7136Z" />
        </mask>
        <path
            d="M175.058 47.7136L173.761 11.3367L180.932 11.0811L187.269 32.657L187.373 32.6533L186.597 10.8791L191.689 10.6976L192.986 47.0745L187.114 47.2838L179.308 20.9732L179.204 20.9769L180.15 47.5321L175.058 47.7136Z"
            fill="#EBEAE8" />
        <path
            d="M175.058 47.7136L174.058 47.7492L174.094 48.7486L175.093 48.713L175.058 47.7136ZM173.761 11.3367L173.725 10.3373L172.726 10.373L172.761 11.3723L173.761 11.3367ZM180.932 11.0811L181.892 10.7993L181.673 10.054L180.897 10.0817L180.932 11.0811ZM187.269 32.657L186.309 32.9388L186.528 33.684L187.304 33.6564L187.269 32.657ZM187.373 32.6533L187.408 33.6527L188.408 33.617L188.372 32.6177L187.373 32.6533ZM186.597 10.8791L186.561 9.87976L185.562 9.91539L185.597 10.9148L186.597 10.8791ZM191.689 10.6976L192.689 10.6619L192.653 9.66258L191.654 9.69821L191.689 10.6976ZM192.986 47.0745L193.022 48.0738L194.021 48.0382L193.985 47.0388L192.986 47.0745ZM187.114 47.2838L186.155 47.5683L186.375 48.3108L187.149 48.2832L187.114 47.2838ZM179.308 20.9732L180.266 20.6888L180.046 19.9463L179.272 19.9739L179.308 20.9732ZM179.204 20.9769L179.168 19.9776L178.169 20.0132L178.204 21.0125L179.204 20.9769ZM180.15 47.5321L180.186 48.5314L181.185 48.4958L181.15 47.4964L180.15 47.5321ZM176.057 47.678L174.76 11.3011L172.761 11.3723L174.058 47.7492L176.057 47.678ZM173.796 12.3361L180.968 12.0804L180.897 10.0817L173.725 10.3373L173.796 12.3361ZM179.973 11.3628L186.309 32.9388L188.228 32.3752L181.892 10.7993L179.973 11.3628ZM187.304 33.6564L187.408 33.6527L187.337 31.6539L187.233 31.6576L187.304 33.6564ZM188.372 32.6177L187.596 10.8435L185.597 10.9148L186.373 32.6889L188.372 32.6177ZM186.632 11.8785L191.725 11.6969L191.654 9.69821L186.561 9.87976L186.632 11.8785ZM190.69 10.7332L191.987 47.1101L193.985 47.0388L192.689 10.6619L190.69 10.7332ZM192.951 46.0751L187.078 46.2844L187.149 48.2832L193.022 48.0738L192.951 46.0751ZM188.073 46.9994L180.266 20.6888L178.349 21.2577L186.155 47.5683L188.073 46.9994ZM179.272 19.9739L179.168 19.9776L179.239 21.9763L179.343 21.9726L179.272 19.9739ZM178.204 21.0125L179.151 47.5677L181.15 47.4964L180.203 20.9413L178.204 21.0125ZM180.115 46.5327L175.022 46.7142L175.093 48.713L180.186 48.5314L180.115 46.5327Z"
            fill="#090909" mask="url(#path-13-outside-7_49_25)" />
    </g>
    <g filter="url(#filter7_d_49_25)">
        <mask id="path-15-outside-8_49_25" maskUnits="userSpaceOnUse" x="200.045" y="9.65446" width="25.3601"
            height="42.3895" fill="black">
            <rect fill="white" x="200.045" y="9.65446" width="25.3601" height="42.3895" />
            <path
                d="M210.395 49.2237C204.833 48.4439 202.412 44.7439 203.22 38.9763L205.877 20.0256C206.686 14.258 210.032 11.3666 215.593 12.1463C221.155 12.9261 223.577 16.6262 222.768 22.3938L222.335 25.4835L216.979 24.7327L217.463 21.2824C217.824 18.7076 216.828 17.5703 215.026 17.3176C213.224 17.0649 211.953 17.8845 211.593 20.4593L208.827 40.1824C208.466 42.7572 209.469 43.843 211.272 44.0957C213.074 44.3484 214.337 43.5803 214.698 41.0055L215.687 33.9505L212.855 33.5534L213.577 28.4038L221.765 29.5518L220.111 41.3444C219.303 47.112 215.957 50.0035 210.395 49.2237Z" />
        </mask>
        <path
            d="M210.395 49.2237C204.833 48.4439 202.412 44.7439 203.22 38.9763L205.877 20.0256C206.686 14.258 210.032 11.3666 215.593 12.1463C221.155 12.9261 223.577 16.6262 222.768 22.3938L222.335 25.4835L216.979 24.7327L217.463 21.2824C217.824 18.7076 216.828 17.5703 215.026 17.3176C213.224 17.0649 211.953 17.8845 211.593 20.4593L208.827 40.1824C208.466 42.7572 209.469 43.843 211.272 44.0957C213.074 44.3484 214.337 43.5803 214.698 41.0055L215.687 33.9505L212.855 33.5534L213.577 28.4038L221.765 29.5518L220.111 41.3444C219.303 47.112 215.957 50.0035 210.395 49.2237Z"
            fill="#EBEAE8" />
        <path
            d="M222.335 25.4835L222.196 26.4739L223.186 26.6127L223.325 25.6224L222.335 25.4835ZM216.979 24.7327L215.989 24.5938L215.85 25.5841L216.84 25.723L216.979 24.7327ZM215.687 33.9505L216.677 34.0894L216.816 33.099L215.826 32.9602L215.687 33.9505ZM212.855 33.5534L211.864 33.4146L211.726 34.4049L212.716 34.5437L212.855 33.5534ZM213.577 28.4038L213.716 27.4135L212.725 27.2746L212.586 28.2649L213.577 28.4038ZM221.765 29.5518L222.755 29.6906L222.894 28.7003L221.903 28.5614L221.765 29.5518ZM210.534 48.2334C207.951 47.8713 206.243 46.8574 205.243 45.4036C204.231 43.9337 203.828 41.8463 204.211 39.1151L202.23 38.8374C201.804 41.8739 202.207 44.5203 203.595 46.5372C204.994 48.5703 207.277 49.7963 210.256 50.214L210.534 48.2334ZM204.211 39.1151L206.868 20.1645L204.887 19.8868L202.23 38.8374L204.211 39.1151ZM206.868 20.1645C207.251 17.4333 208.213 15.5374 209.589 14.4023C210.951 13.2795 212.872 12.7746 215.455 13.1367L215.732 11.156C212.753 10.7384 210.221 11.2892 208.317 12.8592C206.428 14.4168 205.313 16.8503 204.887 19.8868L206.868 20.1645ZM215.455 13.1367C218.037 13.4987 219.746 14.5126 220.746 15.9664C221.757 17.4364 222.161 19.5238 221.778 22.2549L223.758 22.5326C224.184 19.4962 223.781 16.8498 222.393 14.8328C220.995 12.7998 218.711 11.5737 215.732 11.156L215.455 13.1367ZM221.778 22.2549L221.345 25.3447L223.325 25.6224L223.758 22.5326L221.778 22.2549ZM222.474 24.4932L217.118 23.7424L216.84 25.723L222.196 26.4739L222.474 24.4932ZM217.97 24.8715L218.453 21.4213L216.473 21.1436L215.989 24.5938L217.97 24.8715ZM218.453 21.4213C218.651 20.0109 218.508 18.7962 217.885 17.871C217.247 16.9217 216.241 16.4783 215.165 16.3273L214.887 18.3079C215.613 18.4097 216.007 18.6613 216.226 18.9875C216.462 19.3378 216.636 19.9791 216.473 21.1436L218.453 21.4213ZM215.165 16.3273C214.088 16.1764 213 16.3262 212.125 17.0633C211.272 17.7816 210.8 18.9101 210.602 20.3205L212.583 20.5982C212.746 19.4338 213.09 18.8651 213.413 18.593C213.714 18.3398 214.161 18.2062 214.887 18.3079L215.165 16.3273ZM210.602 20.3205L207.837 40.0436L209.818 40.3213L212.583 20.5982L210.602 20.3205ZM207.837 40.0436C207.639 41.4531 207.783 42.6613 208.415 43.5776C209.061 44.5142 210.07 44.9371 211.133 45.086L211.41 43.1054C210.671 43.0017 210.277 42.7553 210.061 42.4422C209.831 42.1087 209.654 41.4866 209.818 40.3213L207.837 40.0436ZM211.133 45.086C212.195 45.235 213.282 45.106 214.161 44.3831C215.02 43.6759 215.491 42.5538 215.688 41.1444L213.708 40.8667C213.544 42.032 213.203 42.5813 212.89 42.8387C212.596 43.0804 212.15 43.2091 211.41 43.1054L211.133 45.086ZM215.688 41.1444L216.677 34.0894L214.697 33.8117L213.708 40.8667L215.688 41.1444ZM215.826 32.9602L212.994 32.5631L212.716 34.5437L215.548 34.9408L215.826 32.9602ZM213.845 33.6923L214.567 28.5426L212.586 28.2649L211.864 33.4146L213.845 33.6923ZM213.438 29.3941L221.626 30.5421L221.903 28.5614L213.716 27.4135L213.438 29.3941ZM220.774 29.4129L219.121 41.2056L221.102 41.4833L222.755 29.6906L220.774 29.4129ZM219.121 41.2056C218.738 43.9367 217.776 45.8327 216.399 46.9678C215.038 48.0905 213.117 48.5955 210.534 48.2334L210.256 50.214C213.235 50.6317 215.768 50.0808 217.672 48.5108C219.561 46.9533 220.676 44.5197 221.102 41.4833L219.121 41.2056Z"
            fill="#090909" mask="url(#path-15-outside-8_49_25)" />
    </g>
    <g filter="url(#filter8_d_49_25)">
        <mask id="path-17-outside-9_49_25" maskUnits="userSpaceOnUse" x="237.825" y="19.9961" width="33.9529"
            height="44.6263" fill="black">
            <rect fill="white" x="237.825" y="19.9961" width="33.9529" height="44.6263" />
            <path
                d="M247.841 59.4732C242.665 57.2942 241.273 53.0971 243.532 47.7293L250.957 30.0924C253.216 24.7246 257.192 22.7872 262.368 24.9661C267.544 27.1451 268.936 31.3422 266.677 36.71L265.466 39.5856L260.482 37.4873L261.834 34.2762C262.842 31.8799 262.171 30.5254 260.494 29.8193C258.816 29.1131 257.379 29.5799 256.37 31.9762L248.643 50.3321C247.634 52.7284 248.325 54.0349 250.003 54.7411C251.68 55.4472 253.098 55.0284 254.106 52.6321L256.87 46.0661L254.234 44.9565L256.252 40.1638L263.872 43.3717L259.252 54.3469C256.992 59.7147 253.017 61.6521 247.841 59.4732Z" />
        </mask>
        <path
            d="M247.841 59.4732C242.665 57.2942 241.273 53.0971 243.532 47.7293L250.957 30.0924C253.216 24.7246 257.192 22.7872 262.368 24.9661C267.544 27.1451 268.936 31.3422 266.677 36.71L265.466 39.5856L260.482 37.4873L261.834 34.2762C262.842 31.8799 262.171 30.5254 260.494 29.8193C258.816 29.1131 257.379 29.5799 256.37 31.9762L248.643 50.3321C247.634 52.7284 248.325 54.0349 250.003 54.7411C251.68 55.4472 253.098 55.0284 254.106 52.6321L256.87 46.0661L254.234 44.9565L256.252 40.1638L263.872 43.3717L259.252 54.3469C256.992 59.7147 253.017 61.6521 247.841 59.4732Z"
            fill="#EBEAE8" />
        <path
            d="M265.466 39.5856L265.078 40.5072L266 40.8952L266.388 39.9735L265.466 39.5856ZM260.482 37.4873L259.56 37.0993L259.172 38.021L260.094 38.409L260.482 37.4873ZM256.87 46.0661L257.792 46.4541L258.18 45.5325L257.258 45.1445L256.87 46.0661ZM254.234 44.9565L253.313 44.5685L252.925 45.4902L253.846 45.8781L254.234 44.9565ZM256.252 40.1638L256.64 39.2422L255.718 38.8542L255.33 39.7758L256.252 40.1638ZM263.872 43.3717L264.794 43.7597L265.182 42.8381L264.26 42.4501L263.872 43.3717ZM248.229 58.5515C245.826 57.5397 244.434 56.1219 243.84 54.4603C243.239 52.7803 243.384 50.6592 244.454 48.1173L242.611 47.3413C241.421 50.1673 241.132 52.8286 241.957 55.1338C242.788 57.4574 244.681 59.2277 247.453 60.3949L248.229 58.5515ZM244.454 48.1173L251.878 30.4804L250.035 29.7044L242.611 47.3413L244.454 48.1173ZM251.878 30.4804C252.948 27.9386 254.364 26.3525 255.986 25.608C257.59 24.8717 259.576 24.876 261.98 25.8878L262.756 24.0445C259.983 22.8773 257.394 22.7608 255.151 23.7904C252.926 24.8119 251.225 26.8785 250.035 29.7044L251.878 30.4804ZM261.98 25.8878C264.383 26.8996 265.775 28.3174 266.369 29.979C266.97 31.659 266.825 33.7801 265.755 36.322L267.598 37.098C268.788 34.272 269.077 31.6107 268.252 29.3055C267.421 26.9819 265.528 25.2116 262.756 24.0445L261.98 25.8878ZM265.755 36.322L264.544 39.1976L266.388 39.9735L267.598 37.098L265.755 36.322ZM265.854 38.6639L260.87 36.5656L260.094 38.409L265.078 40.5072L265.854 38.6639ZM261.403 37.8753L262.755 34.6642L260.912 33.8882L259.56 37.0993L261.403 37.8753ZM262.755 34.6642C263.308 33.3516 263.481 32.1408 263.116 31.087C262.742 30.0056 261.884 29.3194 260.882 28.8976L260.106 30.741C260.781 31.0253 261.097 31.3694 261.226 31.7409C261.364 32.14 261.368 32.8045 260.912 33.8882L262.755 34.6642ZM260.882 28.8976C259.88 28.4758 258.789 28.3417 257.754 28.8299C256.746 29.3057 256.001 30.2756 255.448 31.5882L257.292 32.3642C257.748 31.2805 258.226 30.8189 258.608 30.6387C258.963 30.471 259.43 30.4566 260.106 30.741L260.882 28.8976ZM255.448 31.5882L247.721 49.9441L249.564 50.7201L257.292 32.3642L255.448 31.5882ZM247.721 49.9441C247.169 51.2558 246.998 52.4606 247.374 53.5082C247.758 54.579 248.626 55.2464 249.615 55.6627L250.391 53.8194C249.702 53.5296 249.385 53.1906 249.257 52.8326C249.12 52.4513 249.108 51.8046 249.564 50.7201L247.721 49.9441ZM249.615 55.6627C250.603 56.079 251.687 56.2329 252.721 55.7592C253.733 55.2959 254.476 54.3318 255.028 53.0201L253.185 52.2441C252.728 53.3286 252.257 53.7721 251.889 53.9408C251.543 54.0991 251.079 54.1092 250.391 53.8194L249.615 55.6627ZM255.028 53.0201L257.792 46.4541L255.949 45.6781L253.185 52.2441L255.028 53.0201ZM257.258 45.1445L254.622 44.0348L253.846 45.8781L256.482 46.9878L257.258 45.1445ZM255.156 45.3445L257.174 40.5518L255.33 39.7758L253.313 44.5685L255.156 45.3445ZM255.864 41.0855L263.484 44.2934L264.26 42.4501L256.64 39.2422L255.864 41.0855ZM262.951 42.9838L258.33 53.9589L260.174 54.7349L264.794 43.7597L262.951 42.9838ZM258.33 53.9589C257.26 56.5007 255.845 58.0868 254.223 58.8313C252.619 59.5676 250.633 59.5633 248.229 58.5515L247.453 60.3949C250.226 61.562 252.815 61.6785 255.058 60.6489C257.283 59.6274 258.984 57.5608 260.174 54.7349L258.33 53.9589Z"
            fill="#090909" mask="url(#path-17-outside-9_49_25)" />
    </g>
    <g filter="url(#filter9_d_49_25)">
        <mask id="path-19-outside-10_49_25" maskUnits="userSpaceOnUse" x="260.507" y="32.6344" width="40.3459"
            height="45.2507" fill="black">
            <rect fill="white" x="260.507" y="32.6344" width="40.3459" height="45.2507" />
            <path
                d="M262.414 65.5622L286.962 38.0397L293.498 42.2006L278.951 76.0899L274.126 73.0182L277.13 66.3624L277.074 66.4501L271.591 62.9595L266.888 68.4105L262.414 65.5622ZM274.814 59.1553L279.157 61.9198L286.67 45.374L286.582 45.3182L274.814 59.1553Z" />
        </mask>
        <path
            d="M262.414 65.5622L286.962 38.0397L293.498 42.2006L278.951 76.0899L274.126 73.0182L277.13 66.3624L277.074 66.4501L271.591 62.9595L266.888 68.4105L262.414 65.5622ZM274.814 59.1553L279.157 61.9198L286.67 45.374L286.582 45.3182L274.814 59.1553Z"
            fill="#EBEAE8" />
        <path
            d="M262.414 65.5622L261.667 64.8966L260.885 65.7742L261.877 66.4058L262.414 65.5622ZM286.962 38.0397L287.499 37.1962L286.782 36.7395L286.216 37.3741L286.962 38.0397ZM293.498 42.2006L294.417 42.595L294.752 41.8136L294.035 41.357L293.498 42.2006ZM278.951 76.0899L278.414 76.9335L279.406 77.5651L279.87 76.4844L278.951 76.0899ZM274.126 73.0182L273.214 72.6068L272.858 73.3965L273.589 73.8618L274.126 73.0182ZM277.13 66.3624L278.042 66.7738L276.287 65.8253L277.13 66.3624ZM277.074 66.4501L276.537 67.2937L277.381 67.8307L277.918 66.9871L277.074 66.4501ZM271.591 62.9595L272.128 62.1159L271.399 61.6516L270.834 62.3062L271.591 62.9595ZM266.888 68.4105L266.351 69.2541L267.08 69.7184L267.645 69.0638L266.888 68.4105ZM274.814 59.1553L274.052 58.5074L273.309 59.3822L274.277 59.9988L274.814 59.1553ZM279.157 61.9198L278.62 62.7634L279.591 63.3818L280.067 62.3333L279.157 61.9198ZM286.67 45.374L287.58 45.7875L287.939 44.9968L287.207 44.5305L286.67 45.374ZM286.582 45.3182L287.119 44.4746L286.384 44.0069L285.82 44.6703L286.582 45.3182ZM263.16 66.2278L287.708 38.7054L286.216 37.3741L261.667 64.8966L263.16 66.2278ZM286.425 38.8833L292.961 43.0441L294.035 41.357L287.499 37.1962L286.425 38.8833ZM292.579 41.8061L278.032 75.6955L279.87 76.4844L294.417 42.595L292.579 41.8061ZM279.488 75.2464L274.663 72.1746L273.589 73.8618L278.414 76.9335L279.488 75.2464ZM275.037 73.4296L278.042 66.7738L276.219 65.951L273.214 72.6068L275.037 73.4296ZM276.287 65.8253L276.231 65.9131L277.918 66.9871L277.974 66.8994L276.287 65.8253ZM277.611 65.6065L272.128 62.1159L271.054 63.803L276.537 67.2937L277.611 65.6065ZM270.834 62.3062L266.131 67.7573L267.645 69.0638L272.348 63.6127L270.834 62.3062ZM267.425 67.567L262.951 64.7186L261.877 66.4058L266.351 69.2541L267.425 67.567ZM274.277 59.9988L278.62 62.7634L279.694 61.0763L275.351 58.3117L274.277 59.9988ZM280.067 62.3333L287.58 45.7875L285.759 44.9606L278.246 61.5064L280.067 62.3333ZM287.207 44.5305L287.119 44.4746L286.045 46.1617L286.133 46.2176L287.207 44.5305ZM285.82 44.6703L274.052 58.5074L275.576 59.8031L287.344 45.966L285.82 44.6703Z"
            fill="#090909" mask="url(#path-19-outside-10_49_25)" />
    </g>
    <g filter="url(#filter10_d_49_25)">
        <mask id="path-21-outside-11_49_25" maskUnits="userSpaceOnUse" x="283.18" y="51.5249" width="39.3462"
            height="41.1201" fill="black">
            <rect fill="white" x="283.18" y="51.5249" width="39.3462" height="41.1201" />
            <path
                d="M284.69 80.7031L308.845 53.473L313.124 57.2688L292.42 80.6089L299.461 86.8548L296.01 90.7448L284.69 80.7031Z" />
        </mask>
        <path
            d="M284.69 80.7031L308.845 53.473L313.124 57.2688L292.42 80.6089L299.461 86.8548L296.01 90.7448L284.69 80.7031Z"
            fill="#EBEAE8" />
        <path
            d="M284.69 80.7031L283.942 80.0395L283.278 80.7875L284.026 81.4511L284.69 80.7031ZM308.845 53.473L309.509 52.7249L308.761 52.0613L308.097 52.8094L308.845 53.473ZM313.124 57.2688L313.873 57.9324L314.536 57.1844L313.788 56.5208L313.124 57.2688ZM292.42 80.6089L291.672 79.9453L291.008 80.6934L291.756 81.357L292.42 80.6089ZM299.461 86.8548L300.209 87.5184L300.872 86.7703L300.124 86.1067L299.461 86.8548ZM296.01 90.7448L295.346 91.4929L296.094 92.1565L296.758 91.4084L296.01 90.7448ZM285.438 81.3667L309.594 54.1366L308.097 52.8094L283.942 80.0395L285.438 81.3667ZM308.182 54.2211L312.461 58.0169L313.788 56.5208L309.509 52.7249L308.182 54.2211ZM312.376 56.6052L291.672 79.9453L293.168 81.2725L313.873 57.9324L312.376 56.6052ZM291.756 81.357L298.797 87.6029L300.124 86.1067L293.083 79.8608L291.756 81.357ZM298.713 86.1912L295.262 90.0812L296.758 91.4084L300.209 87.5184L298.713 86.1912ZM296.674 89.9967L285.354 79.955L284.026 81.4511L295.346 91.4929L296.674 89.9967Z"
            fill="#090909" mask="url(#path-21-outside-11_49_25)" />
    </g>
    <g filter="url(#filter11_d_49_25)">
        <mask id="path-23-outside-12_49_25" maskUnits="userSpaceOnUse" x="298.334" y="69.512" width="44.744"
            height="42.5082" fill="black">
            <rect fill="white" x="298.334" y="69.512" width="44.744" height="42.5082" />
            <path
                d="M300.136 94.8519L332.049 76.3677L336.96 82.3609L312.561 110.016L308.936 105.591L313.868 100.206L313.787 100.272L309.668 95.244L303.498 98.9546L300.136 94.8519ZM313.917 92.636L317.18 96.6181L329.482 83.2442L329.416 83.1637L313.917 92.636Z" />
        </mask>
        <path
            d="M300.136 94.8519L332.049 76.3677L336.96 82.3609L312.561 110.016L308.936 105.591L313.868 100.206L313.787 100.272L309.668 95.244L303.498 98.9546L300.136 94.8519ZM313.917 92.636L317.18 96.6181L329.482 83.2442L329.416 83.1637L313.917 92.636Z"
            fill="#EBEAE8" />
        <path
            d="M300.136 94.8519L299.635 93.9865L298.618 94.576L299.363 95.4856L300.136 94.8519ZM332.049 76.3677L332.823 75.7339L332.284 75.0762L331.548 75.5023L332.049 76.3677ZM336.96 82.3609L337.71 83.0224L338.272 82.3848L337.733 81.7271L336.96 82.3609ZM312.561 110.016L311.788 110.65L312.533 111.559L313.311 110.677L312.561 110.016ZM308.936 105.591L308.198 104.916L307.613 105.555L308.162 106.225L308.936 105.591ZM313.868 100.206L314.605 100.881L313.234 99.4324L313.868 100.206ZM313.787 100.272L313.014 100.906L313.647 101.679L314.421 101.045L313.787 100.272ZM309.668 95.244L310.441 94.6102L309.893 93.9414L309.152 94.387L309.668 95.244ZM303.498 98.9546L302.724 99.5884L303.272 100.257L304.013 99.8115L303.498 98.9546ZM313.917 92.636L313.396 91.7827L312.416 92.3816L313.144 93.2698L313.917 92.636ZM317.18 96.6181L316.406 97.2518L317.136 98.1426L317.916 97.2951L317.18 96.6181ZM329.482 83.2442L330.218 83.9212L330.806 83.2821L330.256 82.6104L329.482 83.2442ZM329.416 83.1637L330.19 82.53L329.638 81.8563L328.895 82.3105L329.416 83.1637ZM300.638 95.7172L332.551 77.233L331.548 75.5023L299.635 93.9865L300.638 95.7172ZM331.276 77.0014L336.186 82.9946L337.733 81.7271L332.823 75.7339L331.276 77.0014ZM336.21 81.6993L311.811 109.354L313.311 110.677L337.71 83.0224L336.21 81.6993ZM313.335 109.382L309.709 104.958L308.162 106.225L311.788 110.65L313.335 109.382ZM309.673 106.267L314.605 100.881L313.13 99.5305L308.198 104.916L309.673 106.267ZM313.234 99.4324L313.153 99.4983L314.421 101.045L314.501 100.979L313.234 99.4324ZM314.561 99.638L310.441 94.6102L308.894 95.8778L313.014 100.906L314.561 99.638ZM309.152 94.387L302.983 98.0976L304.013 99.8115L310.183 96.1009L309.152 94.387ZM304.271 98.3208L300.91 94.2181L299.363 95.4856L302.724 99.5884L304.271 98.3208ZM313.144 93.2698L316.406 97.2518L317.953 95.9843L314.691 92.0022L313.144 93.2698ZM317.916 97.2951L330.218 83.9212L328.746 82.5672L316.444 95.9411L317.916 97.2951ZM330.256 82.6104L330.19 82.53L328.643 83.7975L328.709 83.878L330.256 82.6104ZM328.895 82.3105L313.396 91.7827L314.439 93.4893L329.938 84.017L328.895 82.3105Z"
            fill="#090909" mask="url(#path-23-outside-12_49_25)" />
    </g>
    <g filter="url(#filter12_d_49_25)">
        <mask id="path-25-outside-13_49_25" maskUnits="userSpaceOnUse" x="314.226" y="94.6648" width="45.2695"
            height="39.2197" fill="black">
            <rect fill="white" x="314.226" y="94.6648" width="45.2695" height="39.2197" />
            <path
                d="M315.87 114.741L335.325 111.324L347.707 97.0924L350.677 102.343L342.342 111.478L342.393 111.568L354.568 109.223L357.23 113.93L338.653 117.208L325.701 132.121L322.731 126.871L331.727 117.004L331.676 116.913L318.533 119.448L315.87 114.741Z" />
        </mask>
        <path
            d="M315.87 114.741L335.325 111.324L347.707 97.0924L350.677 102.343L342.342 111.478L342.393 111.568L354.568 109.223L357.23 113.93L338.653 117.208L325.701 132.121L322.731 126.871L331.727 117.004L331.676 116.913L318.533 119.448L315.87 114.741Z"
            fill="#EBEAE8" />
        <path
            d="M315.87 114.741L315.697 113.756L314.303 114.001L315 115.233L315.87 114.741ZM335.325 111.324L335.498 112.309L335.847 112.248L336.08 111.981L335.325 111.324ZM347.707 97.0924L348.578 96.6001L347.881 95.3689L346.953 96.436L347.707 97.0924ZM350.677 102.343L351.416 103.017L351.904 102.481L351.547 101.85L350.677 102.343ZM342.342 111.478L341.603 110.804L341.115 111.339L341.472 111.97L342.342 111.478ZM342.393 111.568L341.523 112.061L341.877 112.686L342.582 112.55L342.393 111.568ZM354.568 109.223L355.439 108.73L355.085 108.105L354.379 108.241L354.568 109.223ZM357.23 113.93L357.404 114.915L358.797 114.669L358.101 113.438L357.23 113.93ZM338.653 117.208L338.48 116.224L338.131 116.285L337.898 116.553L338.653 117.208ZM325.701 132.121L324.83 132.614L325.527 133.846L326.456 132.777L325.701 132.121ZM322.731 126.871L321.992 126.197L321.504 126.733L321.861 127.363L322.731 126.871ZM331.727 117.004L332.466 117.677L332.954 117.142L332.597 116.511L331.727 117.004ZM331.676 116.913L332.546 116.421L332.192 115.795L331.486 115.931L331.676 116.913ZM318.533 119.448L317.662 119.94L318.016 120.566L318.722 120.43L318.533 119.448ZM316.043 115.726L335.498 112.309L335.152 110.339L315.697 113.756L316.043 115.726ZM336.08 111.981L348.462 97.7488L346.953 96.436L334.571 110.668L336.08 111.981ZM346.837 97.5847L349.806 102.835L351.547 101.85L348.578 96.6001L346.837 97.5847ZM349.938 101.669L341.603 110.804L343.081 112.152L351.416 103.017L349.938 101.669ZM341.472 111.97L341.523 112.061L343.264 111.076L343.213 110.985L341.472 111.97ZM342.582 112.55L354.757 110.205L354.379 108.241L342.204 110.586L342.582 112.55ZM353.698 109.715L356.36 114.422L358.101 113.438L355.439 108.73L353.698 109.715ZM357.057 112.945L338.48 116.224L338.827 118.193L357.404 114.915L357.057 112.945ZM337.898 116.553L324.946 131.466L326.456 132.777L339.408 117.864L337.898 116.553ZM326.571 131.629L323.602 126.379L321.861 127.363L324.83 132.614L326.571 131.629ZM323.47 127.545L332.466 117.677L330.988 116.33L321.992 126.197L323.47 127.545ZM332.597 116.511L332.546 116.421L330.805 117.405L330.857 117.496L332.597 116.511ZM331.486 115.931L318.343 118.466L318.722 120.43L331.865 117.895L331.486 115.931ZM319.403 118.956L316.741 114.249L315 115.233L317.662 119.94L319.403 118.956Z"
            fill="#090909" mask="url(#path-25-outside-13_49_25)" />
    </g>
    <g filter="url(#filter13_d_49_25)">
        <mask id="path-27-outside-14_49_25" maskUnits="userSpaceOnUse" x="326.944" y="123.715" width="44.4639"
            height="34.7779" fill="black">
            <rect fill="white" x="326.944" y="123.715" width="44.4639" height="34.7779" />
            <path
                d="M330.706 144.392L345.299 139.18L362.659 125.635L364.705 131.365L353.432 139.533L353.467 139.631L367.364 138.808L369.236 144.048L347.223 144.566L332.63 149.779L330.706 144.392Z" />
        </mask>
        <path
            d="M330.706 144.392L345.299 139.18L362.659 125.635L364.705 131.365L353.432 139.533L353.467 139.631L367.364 138.808L369.236 144.048L347.223 144.566L332.63 149.779L330.706 144.392Z"
            fill="#EBEAE8" />
        <path
            d="M330.706 144.392L330.37 143.45L329.428 143.787L329.765 144.728L330.706 144.392ZM345.299 139.18L345.636 140.121L345.787 140.067L345.914 139.968L345.299 139.18ZM362.659 125.635L363.601 125.299L363.135 123.996L362.044 124.847L362.659 125.635ZM364.705 131.365L365.292 132.175L365.899 131.735L365.647 131.029L364.705 131.365ZM353.432 139.533L352.845 138.723L352.238 139.163L352.49 139.869L353.432 139.533ZM353.467 139.631L352.525 139.967L352.777 140.673L353.526 140.629L353.467 139.631ZM367.364 138.808L368.306 138.472L368.054 137.766L367.305 137.81L367.364 138.808ZM369.236 144.048L369.259 145.048L370.643 145.015L370.177 143.712L369.236 144.048ZM347.223 144.566L347.2 143.567L347.039 143.57L346.887 143.625L347.223 144.566ZM332.63 149.779L331.688 150.115L332.025 151.057L332.967 150.72L332.63 149.779ZM331.043 145.334L345.636 140.121L344.963 138.238L330.37 143.45L331.043 145.334ZM345.914 139.968L363.274 126.424L362.044 124.847L344.684 138.391L345.914 139.968ZM361.717 125.972L363.764 131.701L365.647 131.029L363.601 125.299L361.717 125.972ZM364.119 130.555L352.845 138.723L354.019 140.343L365.292 132.175L364.119 130.555ZM352.49 139.869L352.525 139.967L354.409 139.294L354.374 139.196L352.49 139.869ZM353.526 140.629L367.423 139.807L367.305 137.81L353.408 138.632L353.526 140.629ZM366.422 139.145L368.294 144.384L370.177 143.712L368.306 138.472L366.422 139.145ZM369.212 143.048L347.2 143.567L347.247 145.566L369.259 145.048L369.212 143.048ZM346.887 143.625L332.294 148.837L332.967 150.72L347.56 145.508L346.887 143.625ZM333.572 149.442L331.648 144.056L329.765 144.728L331.688 150.115L333.572 149.442Z"
            fill="#090909" mask="url(#path-27-outside-14_49_25)" />
    </g>
    <g filter="url(#filter14_d_49_25)">
        <mask id="path-29-outside-15_49_25" maskUnits="userSpaceOnUse" x="151.414" y="10.4383" width="14.7863"
            height="39.8005" fill="black">
            <rect fill="white" x="151.414" y="10.4383" width="14.7863" height="39.8005" />
            <path d="M159.264 49.054L152.811 13.2304L158.441 12.2165L164.893 48.0401L159.264 49.054Z" />
        </mask>
        <path d="M159.264 49.054L152.811 13.2304L158.441 12.2165L164.893 48.0401L159.264 49.054Z" fill="#EBEAE8" />
        <path
            d="M159.264 49.054L158.279 49.2312L158.457 50.2154L159.441 50.0381L159.264 49.054ZM152.811 13.2304L152.634 12.2462L151.65 12.4235L151.827 13.4076L152.811 13.2304ZM158.441 12.2165L159.425 12.0392L159.248 11.055L158.264 11.2323L158.441 12.2165ZM164.893 48.0401L165.07 49.0242L166.054 48.847L165.877 47.8628L164.893 48.0401ZM160.248 48.8767L153.796 13.0531L151.827 13.4076L158.279 49.2312L160.248 48.8767ZM152.989 14.2145L158.618 13.2006L158.264 11.2323L152.634 12.2462L152.989 14.2145ZM157.457 12.3937L163.909 48.2173L165.877 47.8628L159.425 12.0392L157.457 12.3937ZM164.716 47.0559L159.086 48.0698L159.441 50.0381L165.07 49.0242L164.716 47.0559Z"
            fill="black" mask="url(#path-29-outside-15_49_25)" />
    </g>
    <defs>
        <filter id="filter0_d_49_25" x="10.2113" y="127.916" width="40.1966" height="31.7092"
            filterUnits="userSpaceOnUse" color-interpolation-filters="sRGB">
            <feFlood flood-opacity="0" result="BackgroundImageFix" />
            <feColorMatrix in="SourceAlpha" type="matrix" values="0 0 0 0 0 0 0 0 0 0 0 0 0 0 0 0 0 0 127 0"
                result="hardAlpha" />
            <feOffset dy="3" />
            <feComposite in2="hardAlpha" operator="out" />
            <feColorMatrix type="matrix" values="0 0 0 0 0.0352941 0 0 0 0 0.0352941 0 0 0 0 0.0352941 0 0 0 1 0" />
            <feBlend mode="normal" in2="BackgroundImageFix" result="effect1_dropShadow_49_25" />
            <feBlend mode="normal" in="SourceGraphic" in2="effect1_dropShadow_49_25" result="shape" />
        </filter>
        <filter id="filter1_d_49_25" x="21.4472" y="100.381" width="40.3667" height="35.9174"
            filterUnits="userSpaceOnUse" color-interpolation-filters="sRGB">
            <feFlood flood-opacity="0" result="BackgroundImageFix" />
            <feColorMatrix in="SourceAlpha" type="matrix" values="0 0 0 0 0 0 0 0 0 0 0 0 0 0 0 0 0 0 127 0"
                result="hardAlpha" />
            <feOffset dy="3" />
            <feComposite in2="hardAlpha" operator="out" />
            <feColorMatrix type="matrix" values="0 0 0 0 0.0352941 0 0 0 0 0.0352941 0 0 0 0 0.0352941 0 0 0 1 0" />
            <feBlend mode="normal" in2="BackgroundImageFix" result="effect1_dropShadow_49_25" />
            <feBlend mode="normal" in="SourceGraphic" in2="effect1_dropShadow_49_25" result="shape" />
        </filter>
        <filter id="filter2_d_49_25" x="38.1928" y="75.7897" width="38.2495" height="37.7747"
            filterUnits="userSpaceOnUse" color-interpolation-filters="sRGB">
            <feFlood flood-opacity="0" result="BackgroundImageFix" />
            <feColorMatrix in="SourceAlpha" type="matrix" values="0 0 0 0 0 0 0 0 0 0 0 0 0 0 0 0 0 0 127 0"
                result="hardAlpha" />
            <feOffset dy="3" />
            <feComposite in2="hardAlpha" operator="out" />
            <feColorMatrix type="matrix" values="0 0 0 0 0.0352941 0 0 0 0 0.0352941 0 0 0 0 0.0352941 0 0 0 1 0" />
            <feBlend mode="normal" in2="BackgroundImageFix" result="effect1_dropShadow_49_25" />
            <feBlend mode="normal" in="SourceGraphic" in2="effect1_dropShadow_49_25" result="shape" />
        </filter>
        <filter id="filter3_d_49_25" x="69.0334" y="43.8859" width="36.1559" height="42.9608"
            filterUnits="userSpaceOnUse" color-interpolation-filters="sRGB">
            <feFlood flood-opacity="0" result="BackgroundImageFix" />
            <feColorMatrix in="SourceAlpha" type="matrix" values="0 0 0 0 0 0 0 0 0 0 0 0 0 0 0 0 0 0 127 0"
                result="hardAlpha" />
            <feOffset dy="3" />
            <feComposite in2="hardAlpha" operator="out" />
            <feColorMatrix type="matrix" values="0 0 0 0 0.0352941 0 0 0 0 0.0352941 0 0 0 0 0.0352941 0 0 0 1 0" />
            <feBlend mode="normal" in2="BackgroundImageFix" result="effect1_dropShadow_49_25" />
            <feBlend mode="normal" in="SourceGraphic" in2="effect1_dropShadow_49_25" result="shape" />
        </filter>
        <filter id="filter4_d_49_25" x="93.8549" y="28.3385" width="32.9236" height="44.2103"
            filterUnits="userSpaceOnUse" color-interpolation-filters="sRGB">
            <feFlood flood-opacity="0" result="BackgroundImageFix" />
            <feColorMatrix in="SourceAlpha" type="matrix" values="0 0 0 0 0 0 0 0 0 0 0 0 0 0 0 0 0 0 127 0"
                result="hardAlpha" />
            <feOffset dy="3" />
            <feComposite in2="hardAlpha" operator="out" />
            <feColorMatrix type="matrix" values="0 0 0 0 0.0352941 0 0 0 0 0.0352941 0 0 0 0 0.0352941 0 0 0 1 0" />
            <feBlend mode="normal" in2="BackgroundImageFix" result="effect1_dropShadow_49_25" />
            <feBlend mode="normal" in="SourceGraphic" in2="effect1_dropShadow_49_25" result="shape" />
        </filter>
        <filter id="filter5_d_49_25" x="122.945" y="17.6151" width="27.7639" height="42.9702"
            filterUnits="userSpaceOnUse" color-interpolation-filters="sRGB">
            <feFlood flood-opacity="0" result="BackgroundImageFix" />
            <feColorMatrix in="SourceAlpha" type="matrix" values="0 0 0 0 0 0 0 0 0 0 0 0 0 0 0 0 0 0 127 0"
                result="hardAlpha" />
            <feOffset dy="3" />
            <feComposite in2="hardAlpha" operator="out" />
            <feColorMatrix type="matrix" values="0 0 0 0 0.0352941 0 0 0 0 0.0352941 0 0 0 0 0.0352941 0 0 0 1 0" />
            <feBlend mode="normal" in2="BackgroundImageFix" result="effect1_dropShadow_49_25" />
            <feBlend mode="normal" in="SourceGraphic" in2="effect1_dropShadow_49_25" result="shape" />
        </filter>
        <filter id="filter6_d_49_25" x="173.761" y="10.6976" width="19.2254" height="40.0161"
            filterUnits="userSpaceOnUse" color-interpolation-filters="sRGB">
            <feFlood flood-opacity="0" result="BackgroundImageFix" />
            <feColorMatrix in="SourceAlpha" type="matrix" values="0 0 0 0 0 0 0 0 0 0 0 0 0 0 0 0 0 0 127 0"
                result="hardAlpha" />
            <feOffset dy="3" />
            <feComposite in2="hardAlpha" operator="out" />
            <feColorMatrix type="matrix" values="0 0 0 0 0.0352941 0 0 0 0 0.0352941 0 0 0 0 0.0352941 0 0 0 1 0" />
            <feBlend mode="normal" in2="BackgroundImageFix" result="effect1_dropShadow_49_25" />
            <feBlend mode="normal" in="SourceGraphic" in2="effect1_dropShadow_49_25" result="shape" />
        </filter>
        <filter id="filter7_d_49_25" x="201.95" y="10.9623" width="22.0892" height="42.4455"
            filterUnits="userSpaceOnUse" color-interpolation-filters="sRGB">
            <feFlood flood-opacity="0" result="BackgroundImageFix" />
            <feColorMatrix in="SourceAlpha" type="matrix" values="0 0 0 0 0 0 0 0 0 0 0 0 0 0 0 0 0 0 127 0"
                result="hardAlpha" />
            <feOffset dy="3" />
            <feComposite in2="hardAlpha" operator="out" />
            <feColorMatrix type="matrix" values="0 0 0 0 0.0352941 0 0 0 0 0.0352941 0 0 0 0 0.0352941 0 0 0 1 0" />
            <feBlend mode="normal" in2="BackgroundImageFix" result="effect1_dropShadow_49_25" />
            <feBlend mode="normal" in="SourceGraphic" in2="effect1_dropShadow_49_25" result="shape" />
        </filter>
        <filter id="filter8_d_49_25" x="239.981" y="21.6573" width="30.2463" height="44.1246"
            filterUnits="userSpaceOnUse" color-interpolation-filters="sRGB">
            <feFlood flood-opacity="0" result="BackgroundImageFix" />
            <feColorMatrix in="SourceAlpha" type="matrix" values="0 0 0 0 0 0 0 0 0 0 0 0 0 0 0 0 0 0 127 0"
                result="hardAlpha" />
            <feOffset dy="3" />
            <feComposite in2="hardAlpha" operator="out" />
            <feColorMatrix type="matrix" values="0 0 0 0 0.0352941 0 0 0 0 0.0352941 0 0 0 0 0.0352941 0 0 0 1 0" />
            <feBlend mode="normal" in2="BackgroundImageFix" result="effect1_dropShadow_49_25" />
            <feBlend mode="normal" in="SourceGraphic" in2="effect1_dropShadow_49_25" result="shape" />
        </filter>
        <filter id="filter9_d_49_25" x="262.414" y="34.8563" width="36.0848" height="44.2337"
            filterUnits="userSpaceOnUse" color-interpolation-filters="sRGB">
            <feFlood flood-opacity="0" result="BackgroundImageFix" />
            <feColorMatrix in="SourceAlpha" type="matrix" values="0 0 0 0 0 0 0 0 0 0 0 0 0 0 0 0 0 0 127 0"
                result="hardAlpha" />
            <feOffset dy="3" />
            <feComposite in2="hardAlpha" operator="out" />
            <feColorMatrix type="matrix" values="0 0 0 0 0.0352941 0 0 0 0 0.0352941 0 0 0 0 0.0352941 0 0 0 1 0" />
            <feBlend mode="normal" in2="BackgroundImageFix" result="effect1_dropShadow_49_25" />
            <feBlend mode="normal" in="SourceGraphic" in2="effect1_dropShadow_49_25" result="shape" />
        </filter>
        <filter id="filter10_d_49_25" x="284.69" y="53.473" width="35.4753" height="40.2719"
            filterUnits="userSpaceOnUse" color-interpolation-filters="sRGB">
            <feFlood flood-opacity="0" result="BackgroundImageFix" />
            <feColorMatrix in="SourceAlpha" type="matrix" values="0 0 0 0 0 0 0 0 0 0 0 0 0 0 0 0 0 0 127 0"
                result="hardAlpha" />
            <feOffset dy="3" />
            <feComposite in2="hardAlpha" operator="out" />
            <feColorMatrix type="matrix" values="0 0 0 0 0.0352941 0 0 0 0 0.0352941 0 0 0 0 0.0352941 0 0 0 1 0" />
            <feBlend mode="normal" in2="BackgroundImageFix" result="effect1_dropShadow_49_25" />
            <feBlend mode="normal" in="SourceGraphic" in2="effect1_dropShadow_49_25" result="shape" />
        </filter>
        <filter id="filter11_d_49_25" x="300.136" y="71.7823" width="40.5805" height="41.2335"
            filterUnits="userSpaceOnUse" color-interpolation-filters="sRGB">
            <feFlood flood-opacity="0" result="BackgroundImageFix" />
            <feColorMatrix in="SourceAlpha" type="matrix" values="0 0 0 0 0 0 0 0 0 0 0 0 0 0 0 0 0 0 127 0"
                result="hardAlpha" />
            <feOffset dy="3" />
            <feComposite in2="hardAlpha" operator="out" />
            <feColorMatrix type="matrix" values="0 0 0 0 0.0352941 0 0 0 0 0.0352941 0 0 0 0 0.0352941 0 0 0 1 0" />
            <feBlend mode="normal" in2="BackgroundImageFix" result="effect1_dropShadow_49_25" />
            <feBlend mode="normal" in="SourceGraphic" in2="effect1_dropShadow_49_25" result="shape" />
        </filter>
        <filter id="filter12_d_49_25" x="315.87" y="96.8209" width="41.5137" height="38.3006"
            filterUnits="userSpaceOnUse" color-interpolation-filters="sRGB">
            <feFlood flood-opacity="0" result="BackgroundImageFix" />
            <feColorMatrix in="SourceAlpha" type="matrix" values="0 0 0 0 0 0 0 0 0 0 0 0 0 0 0 0 0 0 127 0"
                result="hardAlpha" />
            <feOffset dy="3" />
            <feComposite in2="hardAlpha" operator="out" />
            <feColorMatrix type="matrix" values="0 0 0 0 0.0352941 0 0 0 0 0.0352941 0 0 0 0 0.0352941 0 0 0 1 0" />
            <feBlend mode="normal" in2="BackgroundImageFix" result="effect1_dropShadow_49_25" />
            <feBlend mode="normal" in="SourceGraphic" in2="effect1_dropShadow_49_25" result="shape" />
        </filter>
        <filter id="filter13_d_49_25" x="328.38" y="125.635" width="40.8557" height="33.6563"
            filterUnits="userSpaceOnUse" color-interpolation-filters="sRGB">
            <feFlood flood-opacity="0" result="BackgroundImageFix" />
            <feColorMatrix in="SourceAlpha" type="matrix" values="0 0 0 0 0 0 0 0 0 0 0 0 0 0 0 0 0 0 127 0"
                result="hardAlpha" />
            <feOffset dy="3" />
            <feComposite in2="hardAlpha" operator="out" />
            <feColorMatrix type="matrix" values="0 0 0 0 0.0352941 0 0 0 0 0.0352941 0 0 0 0 0.0352941 0 0 0 1 0" />
            <feBlend mode="normal" in2="BackgroundImageFix" result="effect1_dropShadow_49_25" />
            <feBlend mode="normal" in="SourceGraphic" in2="effect1_dropShadow_49_25" result="shape" />
        </filter>
        <filter id="filter14_d_49_25" x="152.811" y="12.2165" width="12.0815" height="39.8375"
            filterUnits="userSpaceOnUse" color-interpolation-filters="sRGB">
            <feFlood flood-opacity="0" result="BackgroundImageFix" />
            <feColorMatrix in="SourceAlpha" type="matrix" values="0 0 0 0 0 0 0 0 0 0 0 0 0 0 0 0 0 0 127 0"
                result="hardAlpha" />
            <feOffset dy="3" />
            <feComposite in2="hardAlpha" operator="out" />
            <feColorMatrix type="matrix" values="0 0 0 0 0.0352941 0 0 0 0 0.0352941 0 0 0 0 0.0352941 0 0 0 1 0" />
            <feBlend mode="normal" in2="BackgroundImageFix" result="effect1_dropShadow_49_25" />
            <feBlend mode="normal" in="SourceGraphic" in2="effect1_dropShadow_49_25" result="shape" />
        </filter>
    </defs>
</svg>