<svg width="862" height="866" viewBox="0 0 862 866" fill="none" xmlns="http://www.w3.org/2000/svg">
    <path
        d="M678.097 432.9C678.097 569.888 567.42 680.932 430.899 680.932C294.379 680.932 183.701 569.888 183.701 432.9C183.701 295.913 294.379 184.869 430.899 184.869C567.42 184.869 678.097 295.913 678.097 432.9Z"
        stroke="black" stroke-opacity="0.22" stroke-width="2" />
    <path
        d="M738.662 432.9C738.662 603.449 600.869 741.701 430.899 741.701C260.93 741.701 123.136 603.449 123.136 432.9C123.136 262.352 260.93 124.1 430.899 124.1C600.869 124.1 738.662 262.352 738.662 432.9Z"
        stroke="black" stroke-opacity="0.22" stroke-width="2" />
    <path
        d="M799.227 432.9C799.227 637.011 634.318 802.469 430.899 802.469C227.481 802.469 62.5714 637.011 62.5714 432.9C62.5714 228.79 227.481 63.3315 430.899 63.3315C634.318 63.3315 799.227 228.79 799.227 432.9Z"
        stroke="black" stroke-opacity="0.22" stroke-width="2" />
    <path
        d="M861 432.9C861 671.437 668.478 864.801 431 864.801C193.522 864.801 1 671.437 1 432.9C1 194.364 193.522 1 431 1C668.478 1 861 194.364 861 432.9Z"
        stroke="black" stroke-opacity="0.22" stroke-width="2" />
</svg>